<?xml version="1.0" encoding="UTF-8" standalone="no"?>
<!-- Created with Inkscape (http://www.inkscape.org/) -->

<svg
   width="286.01501mm"
   height="256.49329mm"
   viewBox="0 0 286.01501 256.49328"
   version="1.1"
   id="svg5"
   inkscape:version="1.1.1 (3bf5ae0d25, 2021-09-20)"
   sodipodi:docname="3d-printer.svg"
   xmlns:inkscape="http://www.inkscape.org/namespaces/inkscape"
   xmlns:sodipodi="http://sodipodi.sourceforge.net/DTD/sodipodi-0.dtd"
   xmlns="http://www.w3.org/2000/svg"
   xmlns:svg="http://www.w3.org/2000/svg">
  <sodipodi:namedview
     id="namedview7"
     pagecolor="#505050"
     bordercolor="#eeeeee"
     borderopacity="1"
     inkscape:pageshadow="0"
     inkscape:pageopacity="0"
     inkscape:pagecheckerboard="0"
     inkscape:document-units="mm"
     showgrid="false"
     fit-margin-top="0"
     fit-margin-left="0"
     fit-margin-right="0"
     fit-margin-bottom="0"
     inkscape:zoom="1"
     inkscape:cx="641.5"
     inkscape:cy="648.5"
     inkscape:window-width="1284"
     inkscape:window-height="1011"
     inkscape:window-x="2306"
     inkscape:window-y="26"
     inkscape:window-maximized="0"
     inkscape:current-layer="layer1" />
  <defs
     id="defs2" />
  <g
     inkscape:label="Layer 1"
     inkscape:groupmode="layer"
     id="layer1"
     transform="translate(18.911348,97.499007)">
    <path
       style="fill:#000000;stroke-width:0.264583"
       d="M 98.69595,154.49907 C 82.68866,152.04243 64.47209,149.2257 58.2147,148.23967 l -11.37709,-1.79279 -32.874477,-0.0712 -32.874481,-0.0712 v -14.41476 -14.41477 h 5.816466 5.816466 l 0.08114,-92.802601 0.08114,-92.802609 0.567235,-2.513542 c 1.569649,-6.955461 4.457013,-12.321053 9.188254,-17.074543 4.843579,-4.866352 10.750793,-7.970002 17.739927,-9.320532 2.23667,-0.4322 8.55777,-0.46013 104.11354,-0.46013 h 101.7323 l 2.76056,0.61022 c 13.99465,3.09352 24.20757,13.880549 26.35117,27.832485 0.33295,2.167009 0.3864,15.198495 0.38775,94.522401 l 0.002,92.008851 h 5.68854 5.68854 v 14.41979 14.4198 h -36.64745 -36.64744 l -29.43224,5.80753 c -35.14439,6.93465 -34.95804,6.89896 -35.86182,6.86801 -0.39279,-0.0134 -13.81105,-2.03442 -29.81834,-4.49106 z m 25.79687,-68.509484 v -62.70625 h -0.55262 c -0.49233,0 -14.06401,2.061723 -52.23175,7.934712 -6.54844,1.007628 -17.08547,2.613692 -23.41563,3.569028 -6.33015,0.955339 -11.8368,1.803371 -12.23698,1.884516 l -0.7276,0.14754 v 49.179494 49.179484 l 0.85989,0.1477 c 3.93804,0.67641 86.78424,13.31251 87.4448,13.3375 l 0.85989,0.0325 z M 25.80324,74.86859 c 0,-37.857765 0.0456,-42.71565 0.4095,-43.586495 0.48615,-1.163534 1.30114,-2.0858 2.30438,-2.607717 0.59849,-0.311359 10.93754,-1.960872 34.46008,-5.497833 1.45521,-0.218811 4.61036,-0.695968 7.01146,-1.060344 16.02903,-2.432489 27.25736,-4.130815 41.14271,-6.222984 8.73125,-1.315577 16.22019,-2.453759 16.6421,-2.52929 0.8815,-0.157808 2.65507,0.127794 13.25581,2.134603 31.9894,6.05586 76.04777,14.967561 76.91392,15.557405 1.11499,0.759309 1.78669,1.71841 2.07546,2.963503 0.13893,0.599043 0.24337,18.461255 0.24702,42.246713 l 0.006,41.208849 h 12.03854 12.03855 V 37.967712 -41.539584 h -44.5823 -44.58229 v 6.614584 6.614583 h -3.93252 -3.93253 l -0.13437,1.674001 c -0.17425,2.170763 -0.82353,3.495493 -2.14129,4.368882 -1.00252,0.664454 -1.28589,0.711422 -5.04522,0.836285 l -3.98273,0.132291 -1.25116,7.143751 c -0.68814,3.929062 -1.25668,7.2330473 -1.26343,7.3421883 -0.0228,0.368122 -11.92081,0.237566 -12.05621,-0.132292 -0.12355,-0.337458 -2.50815,-13.9184573 -2.50815,-14.2846333 0,-0.110717 -1.57943,-0.201305 -3.50985,-0.201305 -4.04996,0 -4.84851,-0.268291 -6.11494,-2.05445 -0.61285,-0.864347 -0.78742,-1.439305 -0.89545,-2.94919 l -0.13419,-1.875528 h -4.19778 -4.19779 V -34.925 -41.539584 H 51.73241 3.578236 V 37.967712 117.475 H 14.690737 25.80324 Z m 74.6125,-143.264619 v -4.102279 l 27.31823,0.06738 27.31823,0.06738 0.073,4.034896 0.073,4.034896 h 44.60138 44.60138 l -0.18011,-1.653646 c -1.03092,-9.465001 -7.07842,-16.74674 -16.14372,-19.438517 -1.50861,-0.447955 -6.62987,-0.475129 -103.05521,-0.546836 l -101.46771,-0.07546 -2.41082,0.549068 c -9.273294,2.112015 -16.771478,10.824663 -16.771478,19.487919 v 1.677469 h 48.021958 48.02188 z"
       id="path326" />
  </g>
</svg>
