<?xml version="1.0" encoding="UTF-8" standalone="no"?>
<!-- Created with Inkscape (http://www.inkscape.org/) -->

<svg
   width="87.445023mm"
   height="122.494mm"
   viewBox="0 0 87.445022 122.494"
   version="1.1"
   id="svg5"
   inkscape:version="1.1.1 (3bf5ae0d25, 2021-09-20)"
   sodipodi:docname="robot-arm.svg"
   xmlns:inkscape="http://www.inkscape.org/namespaces/inkscape"
   xmlns:sodipodi="http://sodipodi.sourceforge.net/DTD/sodipodi-0.dtd"
   xmlns="http://www.w3.org/2000/svg"
   xmlns:svg="http://www.w3.org/2000/svg">
  <sodipodi:namedview
     id="namedview7"
     pagecolor="#505050"
     bordercolor="#eeeeee"
     borderopacity="1"
     inkscape:pageshadow="0"
     inkscape:pageopacity="0"
     inkscape:pagecheckerboard="0"
     inkscape:document-units="mm"
     showgrid="false"
     fit-margin-top="0"
     fit-margin-left="0"
     fit-margin-right="0"
     fit-margin-bottom="0"
     inkscape:zoom="1"
     inkscape:cx="507.5"
     inkscape:cy="246.5"
     inkscape:window-width="1920"
     inkscape:window-height="1017"
     inkscape:window-x="1912"
     inkscape:window-y="-8"
     inkscape:window-maximized="1"
     inkscape:current-layer="layer1" />
  <defs
     id="defs2" />
  <g
     inkscape:label="Layer 1"
     inkscape:groupmode="layer"
     id="layer1"
     transform="translate(-16.410537,-8.5989607)">
    <path
       style="fill:#000000;stroke-width:0.264583"
       d="m 32.41146,130.72603 c -2.27818,-1.01688 -3.37701,-3.76491 -2.42066,-6.05377 0.41149,-0.98484 2.02222,-2.49223 2.88853,-2.70321 0.32475,-0.0791 13.33944,-0.11057 28.92153,-0.07 28.33108,0.0738 28.33108,0.0738 29.30289,0.81512 1.29236,0.98579 1.84059,2.12181 1.84059,3.81397 0,1.68825 -0.87091,3.12057 -2.43036,3.99703 -1.02457,0.57584 -1.02457,0.57584 -29.16667,0.56549 -22.92333,-0.008 -28.2893,-0.0761 -28.93585,-0.36466 z m 7.71285,-10.14371 c -0.19064,-0.30846 4.69584,-43.985119 4.921,-43.985291 0.10914,-8.5e-5 0.19844,0.199512 0.19844,0.443545 0,0.244033 0.48104,1.437531 1.06899,2.652218 2.01193,4.156641 6.01469,7.346179 10.73393,8.553158 5.97545,1.52826 12.6634,-0.747448 16.5377,-5.627274 1.17459,-1.479434 2.88021,-4.766855 2.88021,-5.551316 0,-0.258765 0.0907,-0.470484 0.20164,-0.470484 0.1109,0 0.71194,4.613671 1.33565,10.252604 0.6237,5.638932 1.71345,15.48936 2.42167,21.88984 0.70821,6.40048 1.23123,11.72853 1.16227,11.8401 -0.16276,0.26336 -41.29876,0.26623 -41.4615,0.003 z m 39.694,-3.30576 c -0.0893,-0.9095 -0.33881,-3.14192 -0.55446,-4.96094 -0.21564,-1.81901 -0.52315,-4.61697 -0.68333,-6.2177 -0.44611,-4.4579 -0.23814,-4.13559 -2.61029,-4.04547 l -2.01919,0.0767 -0.0709,6.41615 -0.0708,6.41615 H 58.49766 43.18597 l -0.14425,0.85989 c -0.0793,0.47295 -0.22212,1.36592 -0.31729,1.98438 L 42.5514,118.9302 H 61.26605 79.98069 Z M 58.72443,86.634924 C 53.23572,85.82682 48.6655,81.937434 46.77378,76.464584 c -0.79577,-2.302206 -0.80302,-6.233922 -0.0161,-8.742238 2.24573,-7.158484 9.78927,-11.647286 17.06004,-10.151634 2.19143,0.450795 5.46061,2.1535 7.02951,3.66122 6.17713,5.936257 6.37533,15.055942 0.45799,21.073519 -2.2201,2.257714 -4.78262,3.626435 -7.89463,4.216779 -2.25561,0.427886 -2.50465,0.433874 -4.68615,0.112694 z m 14.5385,-13.984729 c 0.65359,-0.413822 0.15669,-3.0606 -1.02841,-5.477973 -0.80014,-1.632133 -1.46981,-2.538201 -2.78591,-3.769347 -2.27293,-2.126213 -4.34775,-3.129674 -7.46781,-3.611718 -1.04115,-0.160857 -1.14162,-0.122653 -1.38906,0.528177 -0.29244,0.76917 -0.35266,3.362269 -0.1,4.305146 0.10429,0.389162 0.36158,0.595313 0.743,0.595313 1.15859,0 3.05462,0.855493 4.27308,1.928018 1.20206,1.058098 2.4821,3.24045 2.48748,4.240938 0.001,0.264228 0.12584,0.710713 0.27648,0.992187 0.23697,0.442783 0.5669,0.511228 2.4474,0.507722 1.19542,-0.0021 2.3401,-0.109537 2.54373,-0.238463 z m -30.32016,-7.61723 c -1.01623,-1.279692 -4.62217,-5.779526 -8.01321,-9.99963 -3.39103,-4.220105 -6.19002,-7.704503 -6.21998,-7.743111 -0.03,-0.03861 -0.73676,-0.247904 -1.57065,-0.465106 -0.8339,-0.217201 -2.19137,-0.717304 -3.01661,-1.111337 -1.95877,-0.935265 -5.22131,-4.19046 -6.17249,-6.158571 -2.77316,-5.738076 -1.75322,-11.963276 2.68767,-16.404166 5.63917,-5.639166 14.24747,-5.651023 19.87112,-0.02737 3.84069,3.840687 5.16301,9.141302 3.55236,14.239895 -0.35948,1.137952 -0.83194,2.304958 -1.04991,2.593346 -0.44329,0.586475 -0.53588,1.360082 -0.17887,1.494477 0.12885,0.04851 3.65671,3.236111 7.83969,7.083563 l 7.60541,6.995371 -2.24041,0.698392 c -4.55767,1.420746 -8.07493,4.457054 -10.10034,8.719219 L 44.79047,67.35968 Z M 23.65857,33.838361 c 0.23018,-0.08833 0.41968,-0.415752 0.4211,-0.727604 0.004,-0.805066 1.13917,-3.080246 1.96777,-3.942778 1.05953,-1.10292 1.89423,-1.571395 3.4048,-1.910931 l 1.37172,-0.308327 0.0674,-2.36186 c 0.0887,-3.110218 0.0171,-3.206222 -2.09844,-2.812806 -5.00514,0.930803 -9.0784,4.998759 -9.98895,9.975947 -0.25611,1.399928 -0.23712,1.626577 0.16069,1.918229 0.46425,0.340359 3.92361,0.465742 4.69396,0.17013 z m 72.44405,0.277888 c -0.50211,-0.351692 -0.58804,-0.656051 -0.58804,-2.082851 0,-1.670973 0,-1.670973 1.10814,-1.848171 1.24637,-0.199303 3.50717,-1.256891 4.33287,-2.026894 0.30042,-0.280155 0.62784,-0.509373 0.7276,-0.509373 0.0998,0 0.18139,1.309688 0.18139,2.910417 0,3.767068 -0.15835,3.96875 -3.11612,3.96875 -1.43425,0 -2.23599,-0.124807 -2.64584,-0.411878 z M 46.83125,32.063178 c 0,-3.328799 -1.76514,-7.439472 -4.38883,-10.220715 l -1.72179,-1.825193 1.40166,-0.146589 c 0.77092,-0.08063 4.61636,-0.269598 8.54542,-0.419942 6.24176,-0.238837 8.61365,-0.469412 18.78541,-1.826151 6.40292,-0.85404 11.73097,-1.500753 11.84011,-1.43714 0.10914,0.06361 0.19844,0.818541 0.19844,1.677619 0,1.97499 0.73989,3.960124 2.1181,5.682852 0.58209,0.727604 1.37229,1.71311 1.75598,2.190014 0.38369,0.476903 0.65126,0.909577 0.59458,0.961497 -0.0567,0.05192 -6.23476,0.894923 -13.72908,1.873338 -10.86922,1.419022 -14.79101,2.040833 -19.38409,3.073398 -3.16693,0.711953 -5.81607,1.294461 -5.88698,1.294461 -0.0709,0 -0.12893,-0.394852 -0.12893,-0.877449 z M 91.9684,28.836432 c -1.54421,-0.589236 -2.97996,-1.80747 -5.18507,-4.399542 -2.64378,-3.107725 -3.30729,-4.533468 -3.30729,-7.10668 0,-2.49123 0.84365,-4.450004 2.67055,-6.200488 2.02278,-1.9381583 3.48106,-2.5307613 6.22772,-2.5307613 3.56687,0 4.62388,0.5840321 7.82249,4.3221693 2.63273,3.076808 2.91046,3.523985 3.41724,5.502149 0.98128,3.830313 -1.09315,7.931851 -5.03176,9.948702 -1.67687,0.858681 -4.97395,1.090214 -6.61388,0.464451 z"
       id="path93" />
  </g>
</svg>
